<svg width="29" height="29" viewBox="0 0 29 29" fill="none" xmlns="http://www.w3.org/2000/svg">
<path d="M14.599 0.601562C7.02502 0.601562 0.828125 6.79846 0.828125 14.3724C0.828125 21.9464 7.02502 28.1433 14.599 28.1433C22.173 28.1433 28.3699 21.9464 28.3699 14.3724C28.3699 6.79846 22.173 0.601562 14.599 0.601562ZM14.599 25.8482C8.28735 25.8482 3.12327 20.6841 3.12327 14.3724C3.12327 8.06079 8.28735 2.89671 14.599 2.89671C20.9107 2.89671 26.0747 8.06079 26.0747 14.3724C26.0747 20.6841 20.9107 25.8482 14.599 25.8482Z" fill="#0E1766"/>
<path d="M14.6001 8.63412C15.8624 8.63412 16.8952 9.66694 16.8952 10.9293H19.1903C19.1903 8.74888 17.6985 7.02752 15.7476 6.45374V5.19141H13.4525V6.45374C11.5016 7.02752 10.0098 8.74888 10.0098 10.9293C10.0098 13.4539 12.0754 15.5196 14.6001 15.5196C15.8624 15.5196 16.8952 16.5524 16.8952 17.8147C16.8952 19.077 15.8624 20.1099 14.6001 20.1099C13.3377 20.1099 12.3049 19.077 12.3049 17.8147H10.0098C10.0098 19.9951 11.5016 21.7165 13.4525 22.2902V23.5526H15.7476V22.2902C17.6985 21.8312 19.1903 19.9951 19.1903 17.8147C19.1903 15.29 17.1247 13.2244 14.6001 13.2244C13.3377 13.2244 12.3049 12.1916 12.3049 10.9293C12.3049 9.66694 13.3377 8.63412 14.6001 8.63412Z" fill="#0E1766"/>
</svg>
